<?xml version="1.0" encoding="UTF-8" standalone="no"?><!DOCTYPE svg PUBLIC "-//W3C//DTD SVG 1.1//EN" "http://www.w3.org/Graphics/SVG/1.1/DTD/svg11.dtd"><svg width="100%" height="100%" viewBox="0 0 19 16" version="1.1" xmlns="http://www.w3.org/2000/svg" xmlns:xlink="http://www.w3.org/1999/xlink" xml:space="preserve" xmlns:serif="http://www.serif.com/" style="fill-rule:evenodd;clip-rule:evenodd;stroke-linejoin:round;stroke-miterlimit:2;"><rect id="Heart" x="0" y="0" width="18.275" height="15.36" style="fill:none;"/><clipPath id="_clip1"><rect x="0" y="0" width="18.275" height="15.36"/></clipPath><g clip-path="url(#_clip1)"><path d="M9.118,15.346l0.023,0.014c-0,0 7.763,-4.878 8.626,-8.748c0.159,-0.485 0.248,-1.004 0.248,-1.545c0,-1.893 -1.047,-3.536 -2.594,-4.396c-0.718,-0.396 -1.541,-0.623 -2.422,-0.623c-1.547,0 -2.93,0.701 -3.848,1.805l-0.01,0.013c-0.924,-1.111 -2.312,-1.818 -3.868,-1.818c-0.875,0 -1.698,0.227 -2.419,0.623c-1.547,0.857 -2.594,2.503 -2.594,4.396c-0,0.541 0.089,1.06 0.249,1.545c0.832,3.75 8.153,8.445 8.609,8.734Z" style="fill:#e93d46;fill-rule:nonzero;"/></g></svg>