<?xml version="1.0" encoding="UTF-8" standalone="no"?><!DOCTYPE svg PUBLIC "-//W3C//DTD SVG 1.1//EN" "http://www.w3.org/Graphics/SVG/1.1/DTD/svg11.dtd"><svg width="100%" height="100%" viewBox="0 0 129 108" version="1.1" xmlns="http://www.w3.org/2000/svg" xmlns:xlink="http://www.w3.org/1999/xlink" xml:space="preserve" xmlns:serif="http://www.serif.com/" style="fill-rule:evenodd;clip-rule:evenodd;stroke-linejoin:round;stroke-miterlimit:2;"><rect id="Mesa-de-trabajo1" serif:id="Mesa de trabajo1" x="0" y="0" width="128" height="107.582" style="fill:none;"/><g><path d="M63.866,107.161l0.156,0.099c-0,-0 54.248,-34.085 60.275,-61.132c1.115,-3.39 1.738,-7.014 1.738,-10.792c0,-13.232 -7.315,-24.711 -18.126,-30.717c-5.019,-2.77 -10.768,-4.355 -16.924,-4.355c-10.813,0 -20.474,4.898 -26.888,12.611l-0.075,0.091c-6.457,-7.766 -16.152,-12.702 -27.028,-12.702c-6.114,0 -11.863,1.585 -16.903,4.355c-10.812,5.985 -18.126,17.485 -18.126,30.717c-0,3.778 0.623,7.402 1.738,10.792c5.818,26.203 56.976,59.012 60.163,61.033Z" style="fill-rule:nonzero;"/></g></svg>